<?xml version="1.0" encoding="utf-8"?>
<!-- Generator: Adobe Illustrator 26.4.1, SVG Export Plug-In . SVG Version: 6.00 Build 0)  -->
<svg version="1.1" id="layer" xmlns="http://www.w3.org/2000/svg" xmlns:xlink="http://www.w3.org/1999/xlink" x="0px" y="0px"
	 viewBox="0 0 652 289.8" style="enable-background:new 0 0 652 289.8;" xml:space="preserve">
<style type="text/css">
	.st0{fill:#004128;}
	.st1{fill:#78CDE6;}
</style>
<path class="st0" d="M97.3,74.1c-3,0-6.3,0.8-8.9,2l1.2,7.4c2-0.6,3.6-0.9,5-0.9c4.2,0,6.4,2.5,6.4,7c0,10.2-6.8,17.3-17.2,17.9
	l-2.1-33.4l-8.8,1l2.4,41.1c0.9,0.1,1.8,0.1,3.1,0.1c19.1,0,31.5-11,31.5-28C109.9,79.4,105.2,74.1,97.3,74.1 M116.5,75v8.2h5.7
	v15.9h9.1V74.9h-14.8V75z M161.5,108.2c-5.6,0-8.8-4.9-8.8-13c0-5.1,1.3-9.2,3-12.1h4.9c7.4,0,10,2.7,10,10.8
	C170.7,103,167.3,108.2,161.5,108.2 M161.8,75h-21.3v8.1h6.3c-2.3,4.2-3.5,8.2-3.5,13.3c0,12.3,6.7,20.1,17.5,20.1
	c11.7,0,19.2-9,19.2-23.3C180,80.8,174.2,75,161.8,75 M215.3,89.3c-0.1-10-4.2-14.3-13.6-14.3h-15.3v8.2h12.5c5.7,0,7.3,1.7,7.4,8.5
	c0.1,2.7,0.1,5.9,0.1,9c0,6.2-0.1,12.3-0.1,14.8h9.1c0-3.2,0.1-11.3,0.1-18.5C215.4,94,215.4,91.3,215.3,89.3 M252.6,107.2
	c0-1.9,0.1-8.1,0.1-12c0-2.3,0-4.3-0.1-6.2c-0.3-9.7-4.2-14-13.5-14H225v8.2h11.1c5.7,0,7.2,1.7,7.4,8.5c0.1,2.9,0.1,6.9,0.1,11.5
	v4.1H224l-0.8,8.2H257l1.6-8.2L252.6,107.2L252.6,107.2z M260.8,75v8.2h5.7v15.9h9.1V74.9h-14.8V75z M303.8,107.4L302.7,75h-17.2
	v8.2h8.4l0.9,24h-12.1l-0.9,8.2h21.3C303.3,113.2,303.8,110,303.8,107.4 M312.3,75v8.2h6.2v32.3h9.1V75H312.3z M375.6,82.7
	c0-2.4-0.9-3.9-3.1-5.3c-1.7-1.2-4.1-2.2-7.7-3.5l-3.7,6.8c1.7,1.1,3,1.9,4.2,2.6c1,0.7,1.3,1.2,1.3,2.1c0,1.6-1.1,5.4-3.7,12.1
	l-19.3-24.2l-6.7,5.5l4.8,6c-2.2,8.5-3.8,19.6-3.9,24.4l-0.1,6.1h8.6l0.7-23.8l20.7,25.9l6.6-5.7l-7.1-8.9
	C372.5,94.5,375.6,87,375.6,82.7 M38.3,83.2c-0.4,3.6-0.8,9.8-0.8,12.3c0,3.9,0.2,8.1,0.4,11.2c-0.1,2.4-0.5,5.7-0.8,8.6
	c-3.5,0.1-6.1,0.2-8.7,0.2c-2.8,0-4.8-0.1-6.9-0.1l0.9-8.1c1.3,0.1,2.5,0.1,3.7,0.1c1.6,0,2.6,0,3.1-0.1c-0.1-1.7-0.2-3.6-0.3-6
	c0-4.4,0.8-13.4,1.5-18.1h-6.8V75h25.7c9.4,0,13.7,4.6,13.9,14.7c0.1,3.1,0.1,6.7,0.1,10.3c0,5.9-0.1,11.7-0.2,15.5h-8.9
	c0-4,0.1-9.6,0.1-14.8c0-3.2-0.1-6.2-0.1-9c-0.1-6.6-1.3-8.5-7.2-8.5C47.1,83.2,38.3,83.2,38.3,83.2z M149.1,142.9v8.2h6v41.8h9v-50
	H149.1z M210,142.9v8.2h5.7V167h9.1v-24.1H210z M272.3,150.7c0-2.4-0.9-3.9-3.1-5.3c-1.7-1.2-4.1-2.2-7.6-3.5l-3.8,6.8
	c1.7,1.1,3,1.9,4.2,2.7c1,0.7,1.3,1.2,1.3,2.1c0,1.6-1.1,5.4-3.7,12.1l-19.3-24.1l-6.7,5.5l4.8,6c-2.2,8.5-3.8,19.6-3.9,24.4
	l-0.1,6.1h8.6l0.7-23.8l20.7,25.9l6.6-5.7l-7.1-8.9C269.2,162.4,272.3,155,272.3,150.7 M279.4,142.9l-0.9,8.1h19.3l0.9-8.1H279.4z
	 M336.1,157.3c-0.1-9.9-4.2-14.3-13.6-14.3h-15.3v8.2h12.5c5.7,0,7.3,1.7,7.4,8.5c0.1,2.7,0.1,5.9,0.1,9c0,6.2-0.1,12.3-0.1,14.8
	h9.1c0-3.2,0.1-11.3,0.1-18.5C336.1,162,336.1,159.3,336.1,157.3 M373.3,175.2c0-1.9,0.2-8.1,0.2-12c0-2.3,0-4.3-0.1-6.2
	c-0.3-9.8-4.2-14-13.5-14h-14.1v8.2H357c5.7,0,7.2,1.7,7.4,8.5c0.1,2.9,0.1,6.9,0.1,11.5v4.1h-19.6l-0.8,8.2h33.7l1.6-8.2h-6.1
	V175.2z M174.4,178c13.2-11.9,19.3-18.3,19.3-24.4c0-1.3-0.1-1.9-0.3-2.4h-18.1c-1.3-4.9-2.4-14.8-2.4-21.3l8.4-1
	c0.1,4.7,1.2,13.6,1.5,14.1h17.7c1.2,2.4,1.9,5.4,1.9,8.9c0,10.6-6.6,19.4-22.3,33C180,184.8,174.4,178,174.4,178z"/>
<path class="st1" d="M185.2,224.5v-16.6h5.2v16.4c0,4.8,2.6,6.8,6.5,6.8c4.1,0,6.6-2.2,6.6-7.6v-15.6h5.1v15.7
	c0,9.1-6.1,11.8-11.7,11.8C191.2,235.4,185.2,232.9,185.2,224.5 M214.7,214h5v2.2c1.5-1.1,4-2.7,6.9-2.7c6.3,0,6.7,3.9,6.7,8.2v13.2
	h-5v-12.6c0-3.2-0.6-4.3-3.4-4.3c-2.1,0-4,0.9-5.3,1.6v15.3h-5C214.7,234.9,214.7,214,214.7,214z M239.1,234.9h5.1v-20.8h-5.1V234.9
	z M238.1,207.5l3.5-3.6l3.6,3.6l-3.6,3.6L238.1,207.5z M247.7,214h5.4l3.8,12.4l1.2,4.3l1.3-4.3l4.2-12.4h5.3l-7.9,20.9h-6.2
	L247.7,214z M284.2,222.5c0-3.1-1.2-5.3-3.7-5.3s-4.2,1.8-4.4,5.3H284.2z M270.9,224.8c0-8.4,4.2-11.3,10-11.3c5.9,0,8.5,4,8.5,10.5
	v1.8H276c0,4.6,2.8,5.3,6.5,5.3c1.4,0,3.6-0.3,5.6-0.9l0.8,3.9c-2,0.7-4.7,1.1-7.3,1.1C275,235.3,270.9,233,270.9,224.8z M294.1,214
	h5v2.8c1-1.4,3-3.2,5.5-3.2c1.2,0,2,0.1,2.7,0.3l-0.7,4.2c-1-0.2-1.5-0.2-2.6-0.2c-2.1,0-4,1.2-4.9,2.4v14.6h-5V214z M309.4,234.5
	l0.6-4c2.3,0.4,4.4,0.7,5.9,0.7c2.9,0,4.1-0.8,4.1-2.1c0-3.2-10.4-1.9-10.4-9.3c0-4.2,3.8-6.3,7.9-6.3c2.4,0,4.5,0.4,6.4,1.1
	l-0.9,3.8c-1.8-0.5-3.4-0.8-5.4-0.8s-3.1,0.8-3.1,1.9c0,3.3,10.3,2.4,10.3,9.3c0,5.1-5.2,6.5-8.6,6.5
	C313.5,235.3,311.2,235,309.4,234.5 M329.4,234.9h5.1v-20.8h-5.1V234.9z M328.3,207.5l3.5-3.6l3.6,3.6l-3.6,3.6L328.3,207.5z
	 M341.5,228.7v-10.8h-3V214h3v-4.3h5v4.3h6.4v3.9h-6.4v10.5c0,2.1,0.8,2.6,2.8,2.6c1.3,0,2.8-0.3,4.1-0.6l0.6,4.1
	c-1.4,0.5-3.9,0.9-5.3,0.9C344.1,235.4,341.5,233.8,341.5,228.7 M364.3,234.9h-2l-6.9-20.8h5.4l3.9,13.3l1,3.5l1.1-3.5l4.5-13.4h5.1
	l-10.1,29.2h-4.8L364.3,234.9z M32.9,230.8c3.5,0,5.5-0.9,5.5-3.8s-2-4-6-4h-3.5v7.8H32.9z M32.1,219.3c3,0,4.5-1.1,4.5-3.7
	c0-2.8-1.8-3.7-5.2-3.7h-2.5v7.4L32.1,219.3L32.1,219.3z M23.7,207.9h8.6c6.3,0,9.4,2.6,9.4,7.2c0,2.5-1.5,4.5-3.2,5.2v0.1
	c2.2,0.5,5.1,2.6,5.1,6.4c0,4.8-2.8,8.1-10.2,8.1h-9.7V207.9z M59.6,229.9v-4.1l-3.8,0.1c-2.3,0-3.8,1-3.8,2.8s1.4,2.6,2.9,2.6
	C56.5,231.2,58.2,230.6,59.6,229.9 M47,229.1c0-5.2,4.7-6.3,8.5-6.3h4.1v-1.9c0-2.4-1.3-3.1-4.3-3.1c-1.9,0-4,0.4-5.8,1l-1-3.7
	c2-0.8,4.6-1.5,7.7-1.5c5.7,0,8.3,1.8,8.3,6.2v10.1c0,1,0.9,1.3,2,1.3l-0.2,3.9c-0.4,0-0.8,0-1.2,0c-2.2,0-4.6-0.5-5-2.4
	c-1.5,1.2-3.6,2.5-6.3,2.5C49.6,235.2,47,233.1,47,229.1 M70.9,214h5v2.8c1-1.4,3-3.2,5.5-3.2c1.2,0,2,0.1,2.7,0.3l-0.7,4.2
	c-1-0.2-1.5-0.2-2.6-0.2c-2.1,0-4,1.2-4.9,2.4v14.6h-5V214z M87.5,226.2h10.8V222H87.5V226.2z M139.6,229.9v-4.1l-3.8,0.1
	c-2.3,0-3.8,1-3.8,2.8s1.4,2.6,2.9,2.6C136.4,231.2,138.1,230.6,139.6,229.9 M127,229.1c0-5.2,4.7-6.3,8.5-6.3h4.1v-1.9
	c0-2.4-1.3-3.1-4.3-3.1c-1.9,0-4,0.4-5.8,1l-1-3.7c2-0.8,4.6-1.5,7.7-1.5c5.7,0,8.3,1.8,8.3,6.2v10.1c0,1,0.9,1.3,2,1.3l-0.2,3.9
	c-0.4,0-0.8,0-1.2,0c-2.2,0-4.6-0.5-5-2.4c-1.5,1.2-3.6,2.5-6.3,2.5C129.5,235.2,127,233.1,127,229.1 M150.8,214h5v2.2
	c1.5-1.1,4-2.7,6.9-2.7c6.3,0,6.7,3.9,6.7,8.2v13.2h-5v-12.6c0-3.2-0.6-4.3-3.4-4.3c-2.1,0-4,0.9-5.3,1.6v15.3h-5V214H150.8z
	 M119.7,235c-3-0.1-4.5-1.9-4.5-5.3v-21.8h5v21.2c0,1.1,0.4,1.6,1.4,1.6c0.4,0,1.2-0.1,1.9-0.2l0.6,4
	C122.5,234.8,120.7,235,119.7,235 M104.4,234.9h5.1v-27h-5.1V234.9z M599.3,193.4c-16.4,33.8-50.8,57.1-90.6,57.1
	c-54,0-98.1-42.9-100.8-96.9h30.4c2.6,37,33.2,66.2,70.4,66.2c22.1,0,41.9-10.3,54.8-26.4L599.3,193.4L599.3,193.4z"/>
<path class="st0" d="M551.8,56.1l-16.2,26.3c25.6,10.7,43.6,36.3,43.6,66c0,6.8-0.9,13.3-2.7,19.5h31.1c1.2-6.3,1.8-12.9,1.8-19.5
	C609.6,107.7,585.9,72.5,551.8,56.1z M453.5,62.9c-26.2,17.3-44,46.7-45.7,80.3h30.4c1.7-23.2,14.2-43.3,32.5-55.1L453.5,62.9z"/>
<path class="st0" d="M523.1,152.6h98.4v30.7H504.2L523.1,152.6z M525.5,129l-16.8,27.3l-86-100.2L445.6,36L525.5,129z M516.2,94.2
	L490.5,78l32.3-52.5l25.7,16.2L516.2,94.2z"/>
<path class="st0" d="M538.1,38.8l4.4,2.8l2.7-4.5c0.8-1.2,0.4-2.8-0.8-3.6s-2.8-0.4-3.6,0.8L538.1,38.8L538.1,38.8z M525.5,30.9
	l4.4,2.8l2.7-4.5c0.8-1.2,0.4-2.8-0.8-3.6s-2.8-0.4-3.6,0.8L525.5,30.9z M500.8,81l-4.4-2.8l-2.7,4.5c-0.8,1.2-0.4,2.8,0.8,3.6
	c1.2,0.8,2.8,0.4,3.6-0.8L500.8,81L500.8,81z M513.4,88.9l-4.4-2.8l-2.7,4.5c-0.8,1.2-0.4,2.8,0.8,3.6c1.2,0.8,2.8,0.4,3.6-0.8
	C510.6,93.4,513.4,88.9,513.4,88.9z"/>
</svg>
