<?xml version="1.0" encoding="UTF-8"?>
<svg id="university-college-london-ucl-vector-logo_Image" data-name="university-college-london-ucl-vector-logo Image" xmlns="http://www.w3.org/2000/svg" viewBox="0 0 595 170">
  <defs>
    <style>
      .cls-1 {
        fill: #fff;
      }

      .cls-2 {
        fill: #231f20;
      }
    </style>
  </defs>
  <g id="g14">
    <path id="path22" class="cls-2" d="M180.023,48.109v121.891h150.771c-1.162-.824-2.244-1.696-3.21-2.619-8.611-8.326-8.731-17.997-8.977-27.059v-51.423h27.546v53.996c0,3.674,.126,7.469,3.198,10.406,2.212,2.328,5.534,3.183,8.73,3.183,4.305,0,7.136-1.594,8.735-3.059,3.194-3.061,3.317-6.856,3.317-10.53v-53.996h27.669v46.037c0,9.914,0,22.773-10.206,32.445-.976,.914-2.052,1.786-3.213,2.619h41.251c-12.143-8.712-17.849-23.271-17.849-37.392,0-23.262,15.62-46.894,45.008-46.894,13.159,0,25.7,4.655,34.802,13.962,3.691,3.794,5.413,6.732,7.255,10.158l-22.993,11.391c-2.217-5.146-6.396-14.327-17.957-14.327-6.025,0-9.838,2.817-11.682,4.654-6.518,6.242-6.518,16.037-6.518,19.471,0,12.852,4.8,24.976,18.326,24.976,12.79,0,16.602-11.267,17.586-14.203l23.363,11.264c-2.214,4.162-4.303,8.08-8.481,12.242-1.796,1.758-3.739,3.319-5.791,4.701h25.264V88.775h27.42v63.838h35.584v17.386l26.031-.013V48.109H180.023"/>
    <path id="path24" class="cls-1" d="M304.656,108.3c-.053-.011-14.84-3.188-14.84-3.188,0,0-14.805,3.181-14.834,3.188-.081,.016-.053,.085-.053,.085l.205,.759h.042s-.005,0-.005,0c0,0,.229-.028,.363,.183l.221,1.22s.005,.085,.093,.085h27.945c.075,0,.082-.063,.082-.063l.222-1.22c.127-.239,.375-.206,.375-.206h-.005s.037,0,.037,0l.206-.759s.029-.069-.053-.085"/>
    <path id="path26" class="cls-1" d="M303.105,111.024c.016,0,.031-.013,.031-.034v-.379c0-.019-.015-.003-.031-.003h-2.254c-.016,0-.035-.016-.035,.003v.379c0,.021,.019,.034,.035,.034h.096c.045,.001,.048,.046,.048,.091,0,.056,.025,.35,.229,.527,.03,.026,.022,.098-.042,.098h-.07c-.05,0-.053,.035-.037,.062,.018,.034,.023,.134,.023,.181v.165c0,.03,.003,.054,.033,.054h.034s.022-.003,.022,.024v8.324c-.025,.026-.112,.115-.12,.121-.005,.007-.014,.018-.014,.03v.141c0,.01-.003,.024-.011,.03-.005,.007-.018,.01-.031,.01h-.104c-.019,0-.035,.017-.035,.034v.239h2.209v-.239c0-.018-.015-.034-.031-.034h-.104c-.014,0-.025-.003-.033-.01-.005-.006-.01-.02-.01-.03v-.141c0-.011-.003-.019-.014-.029-.014-.011-.086-.085-.12-.122v-8.324c0-.027,.022-.024,.022-.024h.031c.029,0,.034-.024,.034-.054v-.165c0-.046,.008-.147,.025-.181,.019-.027,.014-.062-.04-.062h-.067c-.064,0-.072-.072-.045-.098,.207-.169,.229-.463,.229-.52,0-.051-.003-.096,.053-.096h.093"/>
    <path id="path28" class="cls-1" d="M298.244,111.024c.015,0,.031-.013,.031-.034v-.379c0-.019-.016-.003-.031-.003h-2.258c-.018,0-.031-.016-.031,.003v.379c0,.021,.014,.034,.031,.034h.098c.044,.001,.046,.046,.046,.091,0,.056,.026,.35,.229,.527,.029,.026,.018,.098-.041,.098h-.068c-.053,0-.059,.035-.044,.062,.022,.034,.025,.134,.025,.181v.165c0,.03,.005,.054,.034,.054h.033s.023-.003,.023,.024c0,.022,.003,.032,.003,.032v8.291c-.026,.026-.117,.115-.123,.121-.007,.007-.012,.018-.012,.03v.141c0,.01,0,.024-.011,.03-.005,.007-.016,.01-.03,.01h-.106c-.015,0-.029,.017-.029,.034v.239h2.204v-.239c0-.018-.016-.034-.031-.034h-.105c-.012,0-.026-.003-.031-.01-.008-.006-.011-.02-.011-.03v-.141c0-.011-.003-.019-.014-.029-.01-.011-.082-.085-.12-.122v-8.324c0-.027,.025-.024,.025-.024h.03c.029,0,.031-.024,.031-.054v-.165c0-.046,.011-.147,.029-.181,.014-.027,.008-.062-.042-.062h-.067c-.064,0-.071-.072-.042-.098,.207-.169,.229-.463,.229-.52,0-.051-.003-.096,.05-.096h.097"/>
    <path id="path30" class="cls-1" d="M293.38,111.024c.019,0,.03-.013,.03-.034v-.379c0-.019-.011-.003-.03-.003h-2.257c-.019,0-.033-.016-.033,.003v.379c0,.021,.014,.034,.033,.034h.098c.042,.001,.045,.046,.045,.091,0,.056,.027,.35,.232,.527,.027,.026,.016,.098-.042,.098h-.07c-.053,0-.056,.035-.04,.062,.018,.034,.023,.134,.023,.181v.165c0,.03,.003,.054,.03,.054h.037s.025-.003,.025,.024v8.324c-.025,.026-.115,.115-.123,.121-.008,.007-.014,.018-.014,.03v.141c0,.01-.003,.024-.008,.03-.008,.007-.02,.01-.031,.01h-.104c-.016,0-.033,.017-.033,.034v.239h2.205v-.239c0-.018-.016-.034-.033-.034h-.104c-.014,0-.027-.003-.033-.01-.004-.006-.01-.02-.01-.03v-.141c0-.011-.003-.019-.011-.029-.014-.011-.083-.085-.123-.122v-8.324c0-.027,.025-.024,.025-.024h.026c.035,0,.037-.024,.037-.054v-.165c0-.046,.008-.147,.027-.181,.014-.027,.014-.062-.04-.062h-.07c-.064,0-.072-.072-.04-.098,.205-.169,.224-.463,.224-.52,0-.051,0-.096,.053-.096h.096"/>
    <path id="path32" class="cls-1" d="M288.516,111.024c.018,0,.031-.013,.031-.034v-.379c0-.019-.014-.003-.031-.003h-2.258c-.018,0-.029-.016-.029,.003v.379c0,.021,.011,.034,.029,.034h.097c.045,.001,.048,.046,.048,.091,0,.056,.026,.35,.232,.527,.029,.026,.015,.098-.044,.098h-.068c-.053,0-.056,.035-.041,.062,.019,.034,.025,.134,.025,.181v.165c0,.03,.003,.054,.034,.054h.033s.023-.003,.023,.024v8.324c-.023,.026-.115,.115-.121,.121-.005,.007-.011,.018-.011,.03v.141c0,.01-.003,.024-.011,.03-.008,.007-.022,.01-.033,.01h-.104c-.018,0-.031,.017-.031,.034v.239h2.204v-.239c0-.018-.014-.034-.031-.034h-.105c-.012,0-.023-.003-.031-.01-.005-.006-.008-.02-.008-.03v-.141c0-.011-.003-.019-.014-.029-.012-.011-.085-.085-.119-.122v-8.291s-.003-.011-.003-.032c0-.027,.023-.024,.023-.024h.033c.026,0,.031-.024,.031-.054v-.165c0-.046,.008-.147,.027-.181,.015-.027,.01-.062-.041-.062h-.067c-.065,0-.074-.072-.045-.098,.209-.169,.229-.463,.229-.52,0-.051-.003-.096,.05-.096h.097"/>
    <path id="path34" class="cls-1" d="M283.652,111.024c.019,0,.033-.013,.033-.034v-.379c0-.019-.014-.003-.033-.003h-2.254c-.019,0-.033-.016-.033,.003v.379c0,.021,.014,.034,.033,.034h.093c.048,.001,.05,.046,.05,.091,0,.056,.027,.35,.232,.527,.027,.026,.016,.098-.045,.098h-.07c-.053,0-.056,.035-.04,.062,.019,.034,.023,.134,.023,.181v.165c0,.03,.003,.054,.035,.054h.031s.025-.003,.025,.024v8.324c-.025,.026-.115,.115-.12,.121-.008,.007-.014,.018-.014,.03v.141c0,.01-.003,.024-.011,.03-.004,.007-.018,.01-.031,.01h-.101c-.019,0-.035,.017-.035,.034v.239h2.205v-.239c0-.018-.014-.034-.03-.034h-.106c-.011,0-.022-.003-.029-.01-.008-.006-.011-.02-.011-.03v-.141c0-.011-.003-.019-.014-.029-.011-.011-.086-.085-.123-.122v-8.324c0-.027,.025-.024,.025-.024h.029c.033,0,.036-.024,.036-.054v-.165c0-.046,.007-.147,.026-.181,.019-.027,.014-.062-.04-.062h-.07c-.064,0-.072-.072-.042-.098,.207-.169,.229-.463,.229-.52,0-.051-.003-.096,.05-.096h.096"/>
    <path id="path36" class="cls-1" d="M278.789,111.024c.018,0,.034-.013,.034-.034v-.379c0-.019-.016-.003-.034-.003h-2.256c-.018,0-.031-.016-.031,.003v.379c0,.021,.014,.034,.031,.034h.097c.045,.001,.048,.046,.048,.091,0,.056,.026,.35,.232,.527,.026,.026,.015,.098-.044,.098h-.071c-.05,0-.053,.035-.038,.062,.019,.034,.022,.134,.022,.181v.165c0,.03,.003,.054,.034,.054h.033s.023-.003,.023,.024v8.324c-.023,.026-.112,.115-.119,.121-.008,.007-.014,.018-.014,.03v.141c0,.01-.003,.024-.008,.03-.008,.007-.022,.01-.033,.01h-.104c-.018,0-.034,.017-.034,.034v.239h2.206v-.239c0-.018-.014-.034-.031-.034h-.106c-.011,0-.025-.003-.03-.01-.008-.006-.011-.02-.011-.03v-.141c0-.011-.003-.019-.011-.029-.012-.011-.087-.085-.121-.122v-8.324c0-.027,.02-.024,.02-.024h.03c.031,0,.037-.024,.037-.054v-.165c0-.046,.005-.147,.027-.181,.012-.027,.01-.062-.041-.062h-.068c-.067,0-.072-.072-.044-.098,.206-.169,.227-.463,.227-.52,0-.051-.003-.096,.053-.096h.094"/>
    <path id="path38" class="cls-1" d="M296.722,102.242h-.232c-.061,0-.059-.051-.059-.051v-.25c0-.064-.063-.064-.063-.064h-.228c-.063,0-.06-.057-.06-.057v-.231s0-.051-.059-.051h-.136c-.048,0-.098-.04-.101-.106-.008-.315,.101-2.54-1.074-4.15-.925-1.383-2.2-2.086-2.902-2.413-.014-.3-.441-.414-.626-.479-.1-.033-.184-.072-.184-.16,0-.005-.003-.098-.003-.102,0-.093,.086-.131,.213-.127,.041,.002,.07-.033,.07-.059v-.27c0-.038-.034-.081-.09-.081-.094,0-.201,0-.254,0-.061,0-.09-.055-.09-.089v-.135c0-.079-.061-.124-.109-.148v-1.66c0-.056,.042-.048,.079-.048,.005,0,.014,0,.019-.002h.005c.02,0,.04-.019,.04-.041v-.158c0-.023-.019-.039-.04-.039h-.075c-.026-.012-.045-.047-.045-.121,0-.077,.023-.113,.056-.119h.064c.02,0,.04-.018,.04-.039v-.161c0-.021-.019-.039-.04-.039h-.086c-.037-.005-.064-.021-.101-.051-.282-.224-.568-.546-.568-.594v-.06c0-.034-.034-.102-.112-.102-.075,0-.064-.078-.025-.078,.027,0,.033-.008,.033-.044v-.108c0-.048-.145-.248-.145-.248h-.01s-.147,.2-.147,.248v.108c0,.037,.011,.044,.035,.044,.04,0,.051,.078-.022,.078-.078,0-.112,.068-.112,.102,0,.032-.003,.034-.003,.06,0,.048-.285,.37-.568,.594-.037,.029-.064,.045-.101,.051h-.086c-.02,0-.04,.018-.04,.039v.161c0,.022,.019,.039,.04,.039h.067c.03,.006,.053,.043,.053,.119,0,.074-.019,.109-.045,.121h-.075c-.02,0-.04,.017-.04,.039v.158c0,.021,.019,.041,.04,.041h.005c.008,.002,.014,.002,.019,.002,.037,0,.082-.008,.082,.048v1.66c-.048,.023-.112,.068-.112,.148v.135c0,.034-.029,.089-.09,.089-.053,0-.162,0-.254,0-.056,0-.093,.043-.093,.081v.27c0,.026,.031,.06,.07,.059,.128-.004,.216,.034,.216,.127,0,.005-.003,.098-.003,.102,0,.087-.087,.127-.184,.16-.186,.065-.613,.179-.624,.479-.705,.327-1.983,1.029-2.902,2.413-1.178,1.61-1.066,3.835-1.077,4.15-.003,.066-.05,.106-.101,.106h-.136c-.059,0-.059,.051-.059,.051v.231s.003,.057-.059,.057h-.231s-.059,0-.059,.064v.25s.003,.051-.064,.051h-.232s-.064,0-.064,.065v.269c0,.03,.019,.035,.04,.039,.07,.009,.21,.072,.21,.226,0,.262,.161,.287,.225,.287v.969c0,.225-.176,.315-.276,.339-.02,.003-.048,.027-.048,.054v.997l6.802-1.5h.01l6.802,1.5v-.997c0-.027-.03-.051-.05-.054-.1-.024-.273-.113-.273-.339v-.969c.064,0,.225-.025,.225-.287,0-.154,.141-.217,.207-.226,.023-.004,.042-.009,.042-.039v-.269c0-.065-.067-.065-.067-.065"/>
    <path id="path40" class="cls-1" d="M304.246,123.981v-1.988h-1.163v-.868h-26.526v.867h-1.165v1.987h-1.169v2.008l31.192,.002v-2.007h-1.169"/>
  </g>
  <polygon class="cls-2" points="595 0 0 0 0 44.396 0 51.491 0 170 187.909 170 187.909 51.491 595 51.491 595 0"/>
</svg>