<?xml version="1.0" encoding="UTF-8" standalone="no"?>
<svg
   width="906.26404"
   height="633.40283"
   viewBox="0 0 679.69801 475.05254"
   version="1.1"
   id="svg211"
   sodipodi:docname="5-feat.svg"
   xml:space="preserve"
   inkscape:version="1.3.2 (1:1.3.2+202311252150+091e20ef0f)"
   xmlns:inkscape="http://www.inkscape.org/namespaces/inkscape"
   xmlns:sodipodi="http://sodipodi.sourceforge.net/DTD/sodipodi-0.dtd"
   xmlns:xlink="http://www.w3.org/1999/xlink"
   xmlns="http://www.w3.org/2000/svg"
   xmlns:svg="http://www.w3.org/2000/svg"><sodipodi:namedview
     id="namedview211"
     pagecolor="#ffffff"
     bordercolor="#666666"
     borderopacity="1.0"
     inkscape:showpageshadow="2"
     inkscape:pageopacity="0.0"
     inkscape:pagecheckerboard="0"
     inkscape:deskcolor="#d1d1d1"
     inkscape:zoom="0.84678654"
     inkscape:cx="283.42444"
     inkscape:cy="284.01491"
     inkscape:window-width="1920"
     inkscape:window-height="1043"
     inkscape:window-x="1080"
     inkscape:window-y="128"
     inkscape:window-maximized="1"
     inkscape:current-layer="svg211"><inkscape:page
       x="0"
       y="0"
       width="679.698"
       height="475.05255"
       id="page1"
       margin="0 0 0 0"
       bleed="0" /></sodipodi:namedview><defs
     id="defs45"><symbol
       id="a"
       overflow="visible"><path
         d="m 0.422,-3.531 c 0,-0.844 0.082,-1.52 0.25,-2.031 0.176,-0.52 0.437,-0.922 0.781,-1.204 0.344,-0.28 0.774,-0.421 1.297,-0.421 0.383,0 0.719,0.078 1,0.234 0.29,0.156 0.531,0.383 0.719,0.672 0.195,0.293 0.347,0.648 0.453,1.062 0.101,0.418 0.156,0.98 0.156,1.688 0,0.844 -0.09,1.527 -0.266,2.047 C 4.645,-0.973 4.391,-0.578 4.047,-0.297 3.703,-0.016 3.27,0.125 2.75,0.125 2.063,0.125 1.52,-0.125 1.125,-0.625 0.656,-1.219 0.422,-2.187 0.422,-3.531 Z m 0.89,0 c 0,1.18 0.133,1.965 0.407,2.36 0.281,0.386 0.625,0.577 1.031,0.577 0.406,0 0.742,-0.191 1.016,-0.578 0.28,-0.394 0.422,-1.18 0.422,-2.36 0,-1.175 -0.141,-1.956 -0.422,-2.343 -0.274,-0.383 -0.618,-0.578 -1.032,-0.578 -0.398,0 -0.718,0.168 -0.968,0.5 -0.305,0.437 -0.453,1.246 -0.453,2.422 z m 0,0"
         style="stroke:none"
         id="path1" /></symbol><symbol
       id="b"
       overflow="visible"><path
         d="m 0.906,0 v -1 h 1 v 1 z m 0,0"
         style="stroke:none"
         id="path2" /></symbol><symbol
       id="c"
       overflow="visible"><path
         d="m 4.969,-5.406 -0.86,0.062 C 4.023,-5.687 3.91,-5.937 3.766,-6.094 A 1.17,1.17 0 0 0 2.891,-6.469 c -0.282,0 -0.528,0.078 -0.735,0.235 -0.281,0.21 -0.5,0.507 -0.656,0.89 -0.156,0.387 -0.242,0.938 -0.25,1.657 0.207,-0.32 0.46,-0.563 0.766,-0.72 0.312,-0.155 0.632,-0.234 0.968,-0.234 0.594,0 1.094,0.22 1.5,0.657 0.414,0.43 0.625,0.98 0.625,1.656 0,0.45 -0.101,0.867 -0.296,1.25 -0.2,0.387 -0.47,0.683 -0.813,0.89 A 2.128,2.128 0 0 1 2.86,0.125 c -0.731,0 -1.329,-0.27 -1.797,-0.812 -0.461,-0.54 -0.688,-1.426 -0.688,-2.657 0,-1.383 0.254,-2.394 0.766,-3.031 0.445,-0.54 1.047,-0.812 1.797,-0.812 0.57,0 1.035,0.164 1.39,0.484 0.363,0.312 0.578,0.746 0.64,1.297 z M 1.39,-2.313 c 0,0.305 0.062,0.594 0.187,0.876 a 1.399,1.399 0 0 0 1.266,0.843 c 0.375,0 0.691,-0.148 0.953,-0.453 0.27,-0.3 0.406,-0.707 0.406,-1.219 0,-0.5 -0.137,-0.89 -0.406,-1.171 A 1.276,1.276 0 0 0 2.811,-3.875 c -0.398,0 -0.734,0.148 -1.015,0.438 -0.274,0.28 -0.406,0.656 -0.406,1.124 z m 0,0"
         style="stroke:none"
         id="path3" /></symbol><symbol
       id="d"
       overflow="visible"><path
         d="m 0.469,-6.219 v -0.843 h 4.64 v 0.687 C 4.649,-5.895 4.195,-5.254 3.75,-4.453 3.3,-3.648 2.957,-2.82 2.719,-1.969 A 9.236,9.236 0 0 0 2.375,0 H 1.469 c 0.008,-0.562 0.117,-1.238 0.328,-2.031 0.219,-0.801 0.523,-1.57 0.922,-2.313 0.394,-0.738 0.816,-1.363 1.265,-1.875 z m 0,0"
         style="stroke:none"
         id="path4" /></symbol><symbol
       id="e"
       overflow="visible"><path
         d="M 3.719,0 H 2.844 v -5.594 c -0.211,0.2 -0.485,0.403 -0.828,0.61 -0.344,0.199 -0.653,0.343 -0.922,0.437 V -5.391 A 5.276,5.276 0 0 0 2.375,-6.219 C 2.75,-6.551 3.008,-6.875 3.156,-7.187 h 0.563 z m 0,0"
         style="stroke:none"
         id="path5" /></symbol><symbol
       id="f"
       overflow="visible"><path
         d="M 0.422,-1.89 1.297,-2 c 0.101,0.492 0.273,0.852 0.516,1.078 0.238,0.219 0.535,0.328 0.89,0.328 0.414,0 0.766,-0.14 1.047,-0.422 0.281,-0.289 0.422,-0.648 0.422,-1.078 0,-0.406 -0.133,-0.738 -0.39,-1 -0.262,-0.258 -0.594,-0.39 -1,-0.39 A 2.66,2.66 0 0 0 2.156,-3.391 L 2.25,-4.156 h 0.14 c 0.376,0 0.712,-0.094 1.016,-0.282 0.301,-0.195 0.453,-0.5 0.453,-0.906 0,-0.32 -0.109,-0.586 -0.328,-0.797 -0.219,-0.218 -0.5,-0.328 -0.844,-0.328 -0.343,0 -0.632,0.11 -0.859,0.328 -0.23,0.211 -0.375,0.532 -0.437,0.97 L 0.516,-5.328 c 0.101,-0.594 0.343,-1.05 0.718,-1.375 0.383,-0.32 0.86,-0.484 1.422,-0.484 0.395,0 0.754,0.085 1.078,0.25 0.332,0.167 0.582,0.398 0.75,0.687 0.176,0.293 0.266,0.602 0.266,0.922 0,0.312 -0.086,0.594 -0.25,0.844 -0.156,0.25 -0.402,0.453 -0.734,0.609 0.425,0.094 0.754,0.297 0.984,0.61 0.238,0.304 0.36,0.687 0.36,1.156 0,0.625 -0.231,1.156 -0.688,1.593 -0.461,0.43 -1.031,0.641 -1.719,0.641 -0.637,0 -1.164,-0.187 -1.578,-0.562 -0.406,-0.375 -0.64,-0.86 -0.703,-1.454 z m 0,0"
         style="stroke:none"
         id="path6" /></symbol><symbol
       id="g"
       overflow="visible"><path
         d="M 5.031,-0.844 V 0 H 0.297 c 0,-0.207 0.035,-0.41 0.11,-0.61 0.124,-0.32 0.316,-0.64 0.577,-0.952 0.258,-0.313 0.645,-0.672 1.157,-1.079 0.77,-0.644 1.289,-1.148 1.562,-1.515 0.281,-0.375 0.422,-0.727 0.422,-1.063 A 1.14,1.14 0 0 0 3.75,-6.094 c -0.25,-0.238 -0.574,-0.36 -0.969,-0.36 -0.43,0 -0.773,0.126 -1.031,0.376 -0.25,0.25 -0.375,0.601 -0.375,1.047 L 0.469,-5.125 c 0.062,-0.664 0.289,-1.176 0.687,-1.531 0.407,-0.352 0.953,-0.532 1.64,-0.532 0.688,0 1.227,0.196 1.626,0.579 0.406,0.375 0.61,0.843 0.61,1.406 0,0.293 -0.063,0.578 -0.188,0.86 -0.117,0.273 -0.309,0.562 -0.578,0.874 -0.274,0.305 -0.727,0.719 -1.36,1.25 -0.523,0.438 -0.86,0.742 -1.015,0.906 a 2.683,2.683 0 0 0 -0.36,0.47 z m 0,0"
         style="stroke:none"
         id="path7" /></symbol><symbol
       id="h"
       overflow="visible"><path
         d="m 0.656,0 v -5.187 h 0.797 v 0.734 c 0.156,-0.258 0.367,-0.461 0.64,-0.61 0.27,-0.156 0.579,-0.234 0.923,-0.234 0.382,0 0.695,0.078 0.937,0.234 0.25,0.157 0.426,0.383 0.531,0.672 0.407,-0.601 0.938,-0.906 1.594,-0.906 0.52,0 0.914,0.14 1.188,0.422 0.28,0.281 0.422,0.719 0.422,1.313 V 0 H 6.813 v -3.266 c 0,-0.351 -0.032,-0.609 -0.094,-0.765 A 0.695,0.695 0 0 0 6.406,-4.406 0.945,0.945 0 0 0 5.891,-4.546 c -0.368,0 -0.668,0.124 -0.907,0.374 -0.242,0.242 -0.359,0.625 -0.359,1.156 V 0 h -0.89 v -3.375 c 0,-0.383 -0.075,-0.676 -0.22,-0.875 -0.136,-0.195 -0.367,-0.297 -0.687,-0.297 -0.25,0 -0.48,0.07 -0.687,0.203 a 1.12,1.12 0 0 0 -0.47,0.563 c -0.093,0.25 -0.14,0.617 -0.14,1.094 V 0 Z m 0,0"
         style="stroke:none"
         id="path8" /></symbol><symbol
       id="i"
       overflow="visible"><path
         d="m 0.313,-1.547 0.859,-0.14 c 0.05,0.355 0.187,0.625 0.406,0.812 0.227,0.18 0.54,0.266 0.938,0.266 0.406,0 0.707,-0.079 0.906,-0.235 0.195,-0.164 0.297,-0.363 0.297,-0.593 A 0.541,0.541 0 0 0 3.453,-1.907 C 3.328,-1.977 3.023,-2.078 2.547,-2.203 1.91,-2.359 1.469,-2.493 1.219,-2.609 a 1.4,1.4 0 0 1 -0.578,-0.5 1.333,1.333 0 0 1 -0.188,-0.703 c 0,-0.227 0.05,-0.442 0.156,-0.641 0.102,-0.195 0.25,-0.36 0.438,-0.484 0.133,-0.102 0.316,-0.188 0.547,-0.25 0.238,-0.07 0.492,-0.11 0.765,-0.11 0.407,0 0.758,0.059 1.063,0.172 0.312,0.117 0.539,0.277 0.687,0.484 0.157,0.2 0.258,0.465 0.313,0.797 l -0.86,0.11 A 0.942,0.942 0 0 0 3.219,-4.344 C 3.031,-4.5 2.766,-4.578 2.422,-4.578 c -0.399,0 -0.684,0.07 -0.86,0.203 -0.18,0.125 -0.265,0.281 -0.265,0.469 0,0.117 0.035,0.215 0.11,0.297 0.07,0.093 0.187,0.172 0.343,0.234 0.082,0.031 0.344,0.11 0.781,0.234 0.614,0.168 1.04,0.305 1.281,0.407 0.25,0.105 0.442,0.261 0.579,0.468 0.144,0.2 0.218,0.446 0.218,0.735 0,0.304 -0.086,0.586 -0.25,0.843 -0.168,0.25 -0.414,0.45 -0.734,0.594 A 2.654,2.654 0 0 1 2.531,0.125 c -0.68,0 -1.195,-0.14 -1.547,-0.422 C 0.63,-0.578 0.406,-0.992 0.313,-1.547 Z m 0,0"
         style="stroke:none"
         id="path9" /></symbol><symbol
       id="j"
       overflow="visible"><path
         d="M 5.281,-3.125 H 0.563 V -3.937 H 5.28 Z m 0,0"
         style="stroke:none"
         id="path10" /></symbol><symbol
       id="k"
       overflow="visible"><path
         d="M 1.766,-3.875 C 1.398,-4.008 1.129,-4.203 0.953,-4.453 a 1.483,1.483 0 0 1 -0.265,-0.89 c 0,-0.52 0.187,-0.958 0.562,-1.313 0.375,-0.352 0.875,-0.532 1.5,-0.532 0.625,0 1.125,0.184 1.5,0.547 0.383,0.368 0.578,0.809 0.578,1.329 0,0.335 -0.09,0.625 -0.266,0.875 -0.167,0.242 -0.43,0.43 -0.78,0.562 0.437,0.137 0.769,0.367 1,0.688 0.226,0.324 0.343,0.703 0.343,1.14 0,0.617 -0.219,1.133 -0.656,1.547 -0.43,0.418 -0.996,0.625 -1.703,0.625 -0.711,0 -1.282,-0.207 -1.72,-0.625 -0.429,-0.426 -0.64,-0.953 -0.64,-1.578 0,-0.457 0.114,-0.844 0.344,-1.156 0.238,-0.32 0.578,-0.536 1.016,-0.641 z m -0.172,-1.5 c 0,0.344 0.11,0.625 0.328,0.844 0.219,0.21 0.5,0.312 0.844,0.312 0.343,0 0.617,-0.101 0.828,-0.312 0.219,-0.219 0.328,-0.485 0.328,-0.797 0,-0.32 -0.117,-0.594 -0.344,-0.813 A 1.108,1.108 0 0 0 2.766,-6.469 c -0.344,0 -0.625,0.11 -0.844,0.328 -0.219,0.211 -0.328,0.465 -0.328,0.766 z m -0.282,3.313 c 0,0.25 0.055,0.496 0.172,0.734 0.125,0.23 0.301,0.414 0.532,0.547 0.238,0.125 0.492,0.187 0.765,0.187 0.414,0 0.758,-0.133 1.031,-0.406 0.27,-0.27 0.407,-0.613 0.407,-1.031 0,-0.426 -0.14,-0.774 -0.422,-1.047 A 1.426,1.426 0 0 0 2.75,-3.5 c -0.418,0 -0.762,0.137 -1.031,0.406 -0.274,0.274 -0.407,0.617 -0.407,1.031 z m 0,0"
         style="stroke:none"
         id="path11" /></symbol><symbol
       id="l"
       overflow="visible"><path
         d="M 3.234,0 V -1.719 H 0.125 v -0.797 l 3.266,-4.64 h 0.718 v 4.64 h 0.97 v 0.797 H 4.109 V 0 Z m 0,-2.516 V -5.75 l -2.25,3.234 z m 0,0"
         style="stroke:none"
         id="path12" /></symbol><symbol
       id="x"
       overflow="visible"><path
         d="M 1.61,0 0.03,-5.187 h 0.907 l 0.828,3 0.312,1.109 c 0.008,-0.05 0.098,-0.41 0.266,-1.078 l 0.828,-3.031 h 0.89 l 0.782,3.015 0.265,0.985 1.188,-4 H 7.14 L 5.516,0 H 4.609 L 3.781,-3.11 3.578,-3.984 2.531,0 Z m 0,0"
         style="stroke:none"
         id="path13" /></symbol><symbol
       id="y"
       overflow="visible"><path
         d="M 2.094,0 0.125,-5.187 h 0.938 l 1.109,3.109 c 0.113,0.336 0.223,0.683 0.328,1.047 0.082,-0.282 0.191,-0.61 0.328,-0.985 L 3.984,-5.187 H 4.891 L 2.92,0 Z m 0,0"
         style="stroke:none"
         id="path14" /></symbol><symbol
       id="z"
       overflow="visible"><path
         d="M 0.875,0 V -4.5 H 0.094 v -0.687 h 0.781 v -0.547 c 0,-0.352 0.031,-0.614 0.094,-0.782 0.082,-0.226 0.226,-0.41 0.437,-0.546 0.219,-0.145 0.52,-0.22 0.907,-0.22 0.238,0 0.507,0.032 0.812,0.095 L 3,-6.422 A 3.263,3.263 0 0 0 2.469,-6.469 c -0.262,0 -0.45,0.059 -0.563,0.172 -0.105,0.106 -0.156,0.313 -0.156,0.625 v 0.484 h 1 V -4.5 h -1 V 0 Z m 0,0"
         style="stroke:none"
         id="path15" /></symbol><symbol
       id="B"
       overflow="visible"><path
         d="M 4.031,0 V -0.656 C 3.695,-0.133 3.211,0.125 2.578,0.125 2.16,0.125 1.773,0.008 1.422,-0.219 A 2.231,2.231 0 0 1 0.625,-1.172 c -0.187,-0.414 -0.281,-0.89 -0.281,-1.422 0,-0.508 0.082,-0.972 0.25,-1.39 0.176,-0.426 0.437,-0.75 0.781,-0.97 a 2.052,2.052 0 0 1 1.156,-0.343 c 0.313,0 0.586,0.07 0.828,0.203 0.25,0.125 0.454,0.293 0.61,0.5 V -7.156 H 4.844 V 0 Z M 1.25,-2.594 c 0,0.668 0.133,1.168 0.406,1.5 0.282,0.324 0.614,0.485 1,0.485 0.383,0 0.707,-0.157 0.969,-0.47 0.27,-0.312 0.406,-0.788 0.406,-1.437 0,-0.707 -0.136,-1.226 -0.406,-1.562 -0.273,-0.332 -0.605,-0.5 -1,-0.5 -0.398,0 -0.727,0.164 -0.984,0.484 -0.262,0.313 -0.391,0.813 -0.391,1.5 z m 0,0"
         style="stroke:none"
         id="path16" /></symbol><symbol
       id="C"
       overflow="visible"><path
         d="M 4.063,0 V -0.766 C 3.656,-0.172 3.102,0.125 2.406,0.125 2.102,0.125 1.816,0.066 1.546,-0.047 1.286,-0.172 1.086,-0.32 0.953,-0.5 A 1.668,1.668 0 0 1 0.688,-1.156 C 0.656,-1.32 0.64,-1.594 0.64,-1.97 v -3.218 h 0.875 v 2.875 c 0,0.46 0.02,0.773 0.062,0.937 0.05,0.23 0.164,0.414 0.344,0.547 0.176,0.125 0.398,0.187 0.672,0.187 0.258,0 0.504,-0.066 0.734,-0.203 0.227,-0.133 0.39,-0.316 0.485,-0.547 C 3.913,-1.63 3.968,-1.97 3.968,-2.407 V -5.188 H 4.843 V 0 Z m 0,0"
         style="stroke:none"
         id="path17" /></symbol><symbol
       id="D"
       overflow="visible"><path
         d="m 0.656,0 v -5.187 h 0.782 v 0.78 C 1.645,-4.77 1.832,-5.007 2,-5.125 a 0.968,0.968 0 0 1 0.563,-0.172 c 0.3,0 0.601,0.094 0.906,0.281 L 3.172,-4.203 A 1.313,1.313 0 0 0 2.516,-4.391 0.861,0.861 0 0 0 2,-4.219 0.915,0.915 0 0 0 1.672,-3.734 c -0.094,0.312 -0.14,0.652 -0.14,1.015 V 0 Z m 0,0"
         style="stroke:none"
         id="path18" /></symbol><symbol
       id="E"
       overflow="visible"><path
         d="M 4.047,-0.64 C 3.723,-0.36 3.41,-0.16 3.109,-0.047 A 2.748,2.748 0 0 1 2.141,0.125 c -0.575,0 -1.016,-0.14 -1.328,-0.422 -0.305,-0.281 -0.454,-0.64 -0.454,-1.078 0,-0.25 0.055,-0.477 0.172,-0.687 a 1.4,1.4 0 0 1 0.453,-0.5 1.93,1.93 0 0 1 0.641,-0.297 c 0.164,-0.04 0.426,-0.082 0.781,-0.125 0.707,-0.082 1.227,-0.188 1.563,-0.313 v -0.219 c 0,-0.363 -0.086,-0.617 -0.25,-0.765 -0.219,-0.196 -0.555,-0.297 -1,-0.297 -0.406,0 -0.711,0.074 -0.906,0.219 -0.2,0.148 -0.344,0.402 -0.438,0.765 l -0.86,-0.11 c 0.07,-0.374 0.196,-0.671 0.376,-0.89 0.187,-0.226 0.445,-0.398 0.78,-0.515 a 3.46,3.46 0 0 1 1.188,-0.188 c 0.438,0 0.79,0.055 1.063,0.156 0.281,0.106 0.484,0.235 0.61,0.391 0.132,0.156 0.226,0.355 0.28,0.594 0.032,0.148 0.047,0.418 0.047,0.812 v 1.172 c 0,0.813 0.016,1.328 0.047,1.547 0.04,0.219 0.117,0.43 0.235,0.625 H 4.219 A 1.722,1.722 0 0 1 4.047,-0.64 Z M 3.969,-2.61 c -0.324,0.137 -0.805,0.25 -1.438,0.344 -0.355,0.055 -0.61,0.11 -0.765,0.172 a 0.744,0.744 0 0 0 -0.344,0.281 0.724,0.724 0 0 0 -0.125,0.422 c 0,0.23 0.086,0.422 0.266,0.579 0.175,0.156 0.437,0.234 0.78,0.234 A 1.8,1.8 0 0 0 3.25,-0.797 c 0.258,-0.144 0.453,-0.348 0.578,-0.61 0.094,-0.195 0.14,-0.488 0.14,-0.874 z m 0,0"
         style="stroke:none"
         id="path19" /></symbol><symbol
       id="F"
       overflow="visible"><path
         d="m 2.578,-0.781 0.125,0.765 A 3.37,3.37 0 0 1 2.047,0.063 c -0.324,0 -0.574,-0.047 -0.75,-0.141 A 0.835,0.835 0 0 1 0.922,-0.484 C 0.859,-0.648 0.828,-0.992 0.828,-1.516 V -4.5 H 0.172 V -5.187 H 0.828 V -6.47 L 1.688,-7 v 1.813 h 0.89 V -4.5 h -0.89 v 3.031 c 0,0.25 0.015,0.414 0.046,0.485 a 0.335,0.335 0 0 0 0.157,0.172 c 0.07,0.042 0.172,0.062 0.297,0.062 0.101,0 0.234,-0.008 0.39,-0.031 z m 0,0"
         style="stroke:none"
         id="path20" /></symbol><symbol
       id="G"
       overflow="visible"><path
         d="m 0.672,-6.14 v -1.016 h 0.875 v 1.015 z m 0,6.14 V -5.187 H 1.547 V 0 Z m 0,0"
         style="stroke:none"
         id="path21" /></symbol><symbol
       id="H"
       overflow="visible"><path
         d="m 0.328,-2.594 c 0,-0.957 0.27,-1.672 0.813,-2.14 0.437,-0.375 0.976,-0.563 1.625,-0.563 0.707,0 1.285,0.234 1.734,0.703 0.457,0.461 0.688,1.102 0.688,1.922 0,0.668 -0.102,1.195 -0.297,1.578 -0.2,0.387 -0.493,0.688 -0.875,0.907 A 2.613,2.613 0 0 1 2.766,0.125 C 2.036,0.125 1.446,-0.109 1,-0.578 0.55,-1.047 0.328,-1.718 0.328,-2.594 Z m 0.906,0 c 0,0.668 0.145,1.168 0.438,1.5 0.289,0.324 0.656,0.485 1.094,0.485 a 1.34,1.34 0 0 0 1.078,-0.5 c 0.289,-0.332 0.437,-0.836 0.437,-1.516 0,-0.633 -0.148,-1.117 -0.437,-1.453 -0.293,-0.332 -0.653,-0.5 -1.078,-0.5 -0.438,0 -0.805,0.168 -1.094,0.5 -0.293,0.324 -0.438,0.82 -0.438,1.484 z m 0,0"
         style="stroke:none"
         id="path22" /></symbol><symbol
       id="I"
       overflow="visible"><path
         d="m 0.656,0 v -5.187 h 0.797 v 0.734 c 0.375,-0.563 0.922,-0.844 1.64,-0.844 0.313,0 0.598,0.059 0.86,0.172 0.27,0.105 0.469,0.25 0.594,0.438 0.133,0.18 0.226,0.39 0.281,0.64 0.031,0.168 0.047,0.453 0.047,0.86 V 0 H 4 V -3.156 C 4,-3.508 3.96,-3.773 3.89,-3.953 A 0.8,0.8 0 0 0 3.531,-4.375 1.12,1.12 0 0 0 2.921,-4.547 c -0.374,0 -0.702,0.121 -0.983,0.36 -0.274,0.242 -0.407,0.695 -0.407,1.359 V 0 Z m 0,0"
         style="stroke:none"
         id="path23" /></symbol><symbol
       id="J"
       overflow="visible"><path
         d="m 0.906,-4.187 v -1 h 1 v 1 z m 0,4.187 v -1 h 1 v 1 z m 0,0"
         style="stroke:none"
         id="path24" /></symbol><symbol
       id="K"
       overflow="visible"><path
         d="m 4.203,-1.672 0.922,0.11 C 4.977,-1.032 4.707,-0.613 4.313,-0.312 3.926,-0.02 3.438,0.125 2.843,0.125 2.082,0.125 1.477,-0.109 1.031,-0.578 0.582,-1.047 0.36,-1.703 0.36,-2.547 c 0,-0.875 0.223,-1.55 0.672,-2.031 0.457,-0.477 1.04,-0.719 1.75,-0.719 0.696,0 1.266,0.234 1.703,0.703 0.438,0.469 0.657,1.133 0.657,1.985 v 0.234 H 1.28 c 0.032,0.574 0.188,1.012 0.469,1.313 0.29,0.304 0.656,0.453 1.094,0.453 0.32,0 0.597,-0.082 0.828,-0.25 0.226,-0.164 0.406,-0.438 0.531,-0.813 z M 1.328,-3.094 h 2.89 C 4.176,-3.531 4.066,-3.859 3.891,-4.078 a 1.372,1.372 0 0 0 -1.094,-0.5 c -0.406,0 -0.746,0.137 -1.016,0.406 -0.273,0.274 -0.422,0.633 -0.453,1.078 z m 0,0"
         style="stroke:none"
         id="path25" /></symbol><symbol
       id="L"
       overflow="visible"><path
         d="m 4.047,-1.906 0.86,0.125 c -0.095,0.593 -0.34,1.062 -0.735,1.406 -0.387,0.336 -0.86,0.5 -1.422,0.5 -0.71,0 -1.281,-0.234 -1.719,-0.703 -0.43,-0.469 -0.64,-1.133 -0.64,-2 0,-0.55 0.093,-1.035 0.28,-1.453 0.188,-0.426 0.47,-0.742 0.845,-0.953 A 2.51,2.51 0 0 1 2.75,-5.297 c 0.563,0 1.02,0.14 1.375,0.422 0.363,0.281 0.598,0.688 0.703,1.219 l -0.86,0.125 C 3.883,-3.875 3.738,-4.133 3.531,-4.312 3.332,-4.488 3.082,-4.578 2.781,-4.578 c -0.437,0 -0.797,0.164 -1.078,0.484 -0.273,0.313 -0.406,0.813 -0.406,1.5 0,0.7 0.129,1.203 0.39,1.516 0.27,0.312 0.618,0.469 1.047,0.469 0.344,0 0.63,-0.102 0.86,-0.313 0.238,-0.207 0.39,-0.535 0.453,-0.984 z m 0,0"
         style="stroke:none"
         id="path26" /></symbol><symbol
       id="M"
       overflow="visible"><path
         d="M 0.625,2 0.515,1.172 C 0.711,1.222 0.883,1.25 1.031,1.25 A 0.952,0.952 0 0 0 1.484,1.156 0.71,0.71 0 0 0 1.781,0.875 C 1.832,0.789 1.921,0.57 2.047,0.219 2.067,0.176 2.094,0.109 2.125,0.016 L 0.156,-5.187 h 0.953 l 1.079,3 c 0.132,0.386 0.257,0.789 0.374,1.203 0.102,-0.407 0.223,-0.797 0.36,-1.172 l 1.11,-3.031 H 4.906 L 2.938,0.093 C 2.727,0.656 2.566,1.047 2.453,1.266 2.297,1.555 2.113,1.77 1.906,1.906 1.707,2.039 1.469,2.109 1.188,2.109 1.02,2.11 0.832,2.07 0.625,2 Z m 0,0"
         style="stroke:none"
         id="path27" /></symbol><symbol
       id="N"
       overflow="visible"><path
         d="m 0.656,1.984 v -7.171 h 0.797 v 0.671 c 0.195,-0.257 0.41,-0.453 0.64,-0.578 0.239,-0.133 0.532,-0.203 0.876,-0.203 0.437,0 0.82,0.117 1.156,0.344 0.344,0.219 0.598,0.539 0.766,0.953 0.175,0.418 0.265,0.875 0.265,1.375 0,0.523 -0.093,0.996 -0.281,1.422 -0.187,0.43 -0.465,0.758 -0.828,0.984 a 2.145,2.145 0 0 1 -1.14,0.344 c -0.294,0 -0.56,-0.062 -0.798,-0.187 a 1.955,1.955 0 0 1 -0.578,-0.47 v 2.516 z m 0.797,-4.546 c 0,0.667 0.133,1.164 0.406,1.484 0.27,0.312 0.598,0.469 0.985,0.469 0.383,0 0.719,-0.16 1,-0.485 0.281,-0.332 0.422,-0.847 0.422,-1.547 0,-0.656 -0.137,-1.144 -0.407,-1.468 -0.273,-0.332 -0.601,-0.5 -0.984,-0.5 -0.375,0 -0.71,0.18 -1,0.53 -0.281,0.345 -0.422,0.852 -0.422,1.516 z m 0,0"
         style="stroke:none"
         id="path28" /></symbol><symbol
       id="O"
       overflow="visible"><path
         d="M 0.64,0 V -7.156 H 1.516 V 0 Z m 0,0"
         style="stroke:none"
         id="path29" /></symbol><symbol
       id="P"
       overflow="visible"><path
         d="m 0.313,-2.156 v -0.875 h 2.703 v 0.875 z m 0,0"
         style="stroke:none"
         id="path30" /></symbol><symbol
       id="Q"
       overflow="visible"><path
         d="m 0.766,0 v -7.156 h 2.703 c 0.476,0 0.844,0.023 1.094,0.062 0.351,0.063 0.644,0.18 0.875,0.344 0.238,0.156 0.43,0.387 0.578,0.688 0.144,0.292 0.218,0.617 0.218,0.968 0,0.617 -0.195,1.137 -0.578,1.563 C 5.27,-3.113 4.57,-2.906 3.563,-2.906 H 1.719 V 0 Z m 0.953,-3.75 h 1.844 c 0.613,0 1.05,-0.113 1.312,-0.344 0.258,-0.226 0.39,-0.55 0.39,-0.968 0,-0.301 -0.077,-0.555 -0.234,-0.766 A 1.09,1.09 0 0 0 4.438,-6.25 C 4.27,-6.29 3.973,-6.312 3.547,-6.312 H 1.719 Z m 0,0"
         style="stroke:none"
         id="path31" /></symbol><symbol
       id="R"
       overflow="visible"><path
         d="m 0.672,0 v -7.156 h 0.875 v 4.078 l 2.078,-2.11 h 1.14 L 2.782,-3.266 4.97,0 H 3.875 L 2.156,-2.656 1.546,-2.062 V 0 Z m 0,0"
         style="stroke:none"
         id="path32" /></symbol><symbol
       id="S"
       overflow="visible"><path
         d="M 0,0.125 2.078,-7.281 H 2.781 L 0.703,0.125 Z m 0,0"
         style="stroke:none"
         id="path33" /></symbol><symbol
       id="T"
       overflow="visible"><path
         d="m 0.5,0.438 0.86,0.125 c 0.03,0.257 0.128,0.453 0.296,0.578 0.219,0.156 0.516,0.234 0.89,0.234 0.407,0 0.72,-0.086 0.938,-0.25 C 3.704,0.969 3.852,0.742 3.938,0.453 3.977,0.273 4,-0.097 4,-0.672 3.613,-0.222 3.133,0 2.563,0 1.852,0 1.3,-0.254 0.906,-0.766 0.52,-1.286 0.328,-1.906 0.328,-2.625 c 0,-0.488 0.086,-0.941 0.266,-1.36 0.176,-0.425 0.43,-0.75 0.765,-0.968 a 2.132,2.132 0 0 1 1.204,-0.344 c 0.613,0 1.117,0.246 1.515,0.734 v -0.625 h 0.813 v 4.485 C 4.891,0.109 4.805,0.68 4.641,1.016 4.484,1.348 4.223,1.613 3.859,1.813 3.504,2.008 3.066,2.109 2.547,2.109 1.93,2.109 1.43,1.969 1.047,1.688 0.672,1.406 0.488,0.988 0.5,0.438 Z m 0.719,-3.125 c 0,0.68 0.133,1.171 0.406,1.484 0.27,0.312 0.61,0.469 1.016,0.469 0.406,0 0.742,-0.149 1.015,-0.453 0.281,-0.313 0.422,-0.801 0.422,-1.47 0,-0.632 -0.14,-1.113 -0.422,-1.437 -0.281,-0.32 -0.625,-0.484 -1.031,-0.484 -0.387,0 -0.719,0.164 -1,0.484 -0.273,0.313 -0.406,0.782 -0.406,1.407 z m 0,0"
         style="stroke:none"
         id="path34" /></symbol><symbol
       id="U"
       overflow="visible"><path
         d="m 0.656,0 v -7.156 h 0.875 v 2.562 a 2,2 0 0 1 1.563,-0.703 c 0.383,0 0.719,0.078 1,0.234 0.281,0.149 0.484,0.356 0.61,0.625 0.124,0.262 0.187,0.649 0.187,1.157 V 0 H 4 V -3.281 C 4,-3.727 3.906,-4.051 3.719,-4.25 3.531,-4.445 3.258,-4.547 2.906,-4.547 c -0.261,0 -0.508,0.07 -0.734,0.203 -0.23,0.137 -0.399,0.32 -0.5,0.547 -0.094,0.23 -0.14,0.547 -0.14,0.953 V 0 Z m 0,0"
         style="stroke:none"
         id="path35" /></symbol><symbol
       id="m"
       overflow="visible"><path
         d="m 0,0.016 -7.156,-2.75 V -3.75 L 0,-6.687 v 1.078 l -2.172,0.843 v 2.985 L 0,-0.984 Z m -2.937,-2.063 v -2.437 l -1.985,0.75 a 20.21,20.21 0 0 1 -1.484,0.515 c 0.46,0.086 0.914,0.211 1.36,0.375 z m 0,0"
         style="stroke:none"
         id="path36" /></symbol><symbol
       id="n"
       overflow="visible"><path
         d="m 0,-0.656 h -5.187 v -0.781 h 0.78 C -4.77,-1.645 -5.007,-1.832 -5.125,-2 a 0.968,0.968 0 0 1 -0.172,-0.562 c 0,-0.301 0.094,-0.602 0.281,-0.907 l 0.813,0.297 a 1.313,1.313 0 0 0 -0.188,0.656 c 0,0.188 0.059,0.36 0.172,0.516 a 0.915,0.915 0 0 0 0.485,0.328 c 0.312,0.094 0.652,0.14 1.015,0.14 H 0 Z m 0,0"
         style="stroke:none"
         id="path37" /></symbol><symbol
       id="o"
       overflow="visible"><path
         d="m 0,-1.469 v 0.813 h -7.156 v -0.875 h 2.547 c -0.457,-0.375 -0.688,-0.848 -0.688,-1.422 0,-0.32 0.063,-0.625 0.188,-0.906 0.125,-0.282 0.308,-0.516 0.547,-0.703 0.23,-0.188 0.511,-0.333 0.843,-0.438 a 3.478,3.478 0 0 1 1.047,-0.156 c 0.887,0 1.574,0.226 2.063,0.672 0.492,0.437 0.734,0.964 0.734,1.578 0,0.605 -0.258,1.086 -0.781,1.437 z m -2.625,0.016 c 0.617,0 1.063,-0.086 1.344,-0.266 0.449,-0.27 0.672,-0.644 0.672,-1.125 0,-0.375 -0.164,-0.703 -0.5,-0.984 -0.332,-0.281 -0.828,-0.422 -1.485,-0.422 -0.676,0 -1.176,0.137 -1.5,0.406 -0.32,0.262 -0.484,0.586 -0.484,0.969 0,0.387 0.168,0.719 0.5,1 0.336,0.281 0.82,0.422 1.453,0.422 z m 0,0"
         style="stroke:none"
         id="path38" /></symbol><symbol
       id="p"
       overflow="visible"><path
         d="m -6.14,-0.672 h -1.016 v -0.875 h 1.015 z m 6.14,0 H -5.187 V -1.547 H 0 Z m 0,0"
         style="stroke:none"
         id="path39" /></symbol><symbol
       id="q"
       overflow="visible"><path
         d="m -0.781,-2.578 0.765,-0.125 c 0.051,0.25 0.079,0.469 0.079,0.656 0,0.324 -0.047,0.574 -0.141,0.75 a 0.835,0.835 0 0 1 -0.406,0.375 c -0.164,0.063 -0.508,0.094 -1.032,0.094 H -4.5 v 0.656 H -5.187 V -0.828 H -6.47 L -7,-1.688 h 1.813 v -0.89 H -4.5 v 0.89 h 3.031 c 0.25,0 0.414,-0.015 0.485,-0.046 a 0.335,0.335 0 0 0 0.172,-0.157 0.579,0.579 0 0 0 0.062,-0.296 c 0,-0.102 -0.008,-0.235 -0.031,-0.391 z m 0,0"
         style="stroke:none"
         id="path40" /></symbol><symbol
       id="r"
       overflow="visible"><path
         d="m -0.64,-4.047 c 0.28,0.324 0.48,0.637 0.593,0.938 0.113,0.304 0.172,0.625 0.172,0.968 0,0.575 -0.14,1.016 -0.422,1.329 -0.281,0.304 -0.64,0.453 -1.078,0.453 -0.25,0 -0.477,-0.055 -0.687,-0.172 a 1.4,1.4 0 0 1 -0.5,-0.453 1.93,1.93 0 0 1 -0.297,-0.641 7.658,7.658 0 0 1 -0.125,-0.781 c -0.082,-0.707 -0.188,-1.227 -0.313,-1.563 h -0.219 c -0.363,0 -0.617,0.086 -0.765,0.25 -0.196,0.219 -0.297,0.555 -0.297,1 0,0.406 0.074,0.711 0.219,0.906 0.148,0.2 0.402,0.344 0.765,0.438 l -0.11,0.86 c -0.374,-0.07 -0.671,-0.196 -0.89,-0.376 -0.226,-0.187 -0.398,-0.445 -0.515,-0.78 a 3.46,3.46 0 0 1 -0.188,-1.188 c 0,-0.438 0.055,-0.79 0.156,-1.063 0.106,-0.281 0.235,-0.484 0.391,-0.61 0.156,-0.132 0.355,-0.226 0.594,-0.28 0.148,-0.032 0.418,-0.047 0.812,-0.047 h 1.172 c 0.813,0 1.328,-0.016 1.547,-0.047 0.219,-0.04 0.43,-0.117 0.625,-0.235 v 0.922 a 1.722,1.722 0 0 1 -0.64,0.172 z m -1.97,0.078 c 0.137,0.324 0.25,0.805 0.344,1.438 0.055,0.355 0.11,0.61 0.172,0.765 a 0.744,0.744 0 0 0 0.281,0.344 0.724,0.724 0 0 0 0.422,0.125 0.73,0.73 0 0 0 0.579,-0.266 c 0.156,-0.175 0.234,-0.437 0.234,-0.78 a 1.8,1.8 0 0 0 -0.219,-0.907 1.362,1.362 0 0 0 -0.61,-0.578 c -0.195,-0.094 -0.488,-0.14 -0.874,-0.14 z m 0,0"
         style="stroke:none"
         id="path41" /></symbol><symbol
       id="s"
       overflow="visible"><path
         d="m 2,-0.625 -0.828,0.11 C 1.222,-0.711 1.25,-0.883 1.25,-1.031 A 0.952,0.952 0 0 0 1.156,-1.484 0.71,0.71 0 0 0 0.875,-1.781 C 0.789,-1.832 0.57,-1.921 0.219,-2.047 A 2.098,2.098 0 0 0 0.016,-2.125 l -5.203,1.969 v -0.953 l 3,-1.078 c 0.386,-0.133 0.789,-0.258 1.203,-0.376 a 11.715,11.715 0 0 1 -1.172,-0.359 l -3.031,-1.11 v -0.874 l 5.28,1.968 c 0.563,0.211 0.954,0.372 1.173,0.485 0.289,0.156 0.504,0.34 0.64,0.547 0.133,0.199 0.203,0.437 0.203,0.718 0,0.168 -0.039,0.356 -0.109,0.563 z m 0,0"
         style="stroke:none"
         id="path42" /></symbol><symbol
       id="u"
       overflow="visible"><path
         d="m 0,-4.062 h -0.766 c 0.594,0.406 0.891,0.96 0.891,1.656 0,0.304 -0.059,0.59 -0.172,0.86 -0.125,0.26 -0.273,0.46 -0.453,0.593 a 1.668,1.668 0 0 1 -0.656,0.265 c -0.164,0.032 -0.438,0.047 -0.813,0.047 h -3.218 v -0.875 h 2.875 c 0.46,0 0.773,-0.02 0.937,-0.062 a 0.893,0.893 0 0 0 0.547,-0.344 c 0.125,-0.176 0.187,-0.398 0.187,-0.672 0,-0.258 -0.066,-0.504 -0.203,-0.734 A 1.114,1.114 0 0 0 -1.391,-3.813 C -1.629,-3.914 -1.969,-3.969 -2.406,-3.969 H -5.187 V -4.844 H 0 Z m 0,0"
         style="stroke:none"
         id="path43" /></symbol><symbol
       id="v"
       overflow="visible"><path
         d="m 0,-0.656 h -5.187 v -0.797 h 0.734 c -0.563,-0.375 -0.844,-0.922 -0.844,-1.64 0,-0.313 0.059,-0.598 0.172,-0.86 0.105,-0.27 0.25,-0.469 0.438,-0.594 0.18,-0.133 0.39,-0.226 0.64,-0.281 0.168,-0.031 0.453,-0.047 0.86,-0.047 H 0 V -4 h -3.156 c -0.352,0 -0.617,0.04 -0.797,0.11 a 0.8,0.8 0 0 0 -0.422,0.359 1.12,1.12 0 0 0 -0.172,0.61 c 0,0.374 0.121,0.702 0.36,0.983 0.242,0.274 0.695,0.407 1.359,0.407 H 0 Z m 0,0"
         style="stroke:none"
         id="path44" /></symbol><symbol
       id="w"
       overflow="visible"><path
         d="m -1.547,-0.312 -0.14,-0.86 c 0.355,-0.05 0.625,-0.187 0.812,-0.406 0.18,-0.227 0.266,-0.54 0.266,-0.938 0,-0.406 -0.079,-0.707 -0.235,-0.906 -0.164,-0.195 -0.363,-0.297 -0.593,-0.297 a 0.541,0.541 0 0 0 -0.47,0.266 c -0.07,0.125 -0.171,0.43 -0.296,0.906 -0.156,0.637 -0.29,1.078 -0.406,1.328 a 1.4,1.4 0 0 1 -0.5,0.578 1.333,1.333 0 0 1 -0.703,0.188 1.35,1.35 0 0 1 -0.641,-0.156 1.301,1.301 0 0 1 -0.484,-0.438 1.585,1.585 0 0 1 -0.25,-0.547 2.686,2.686 0 0 1 -0.11,-0.765 c 0,-0.407 0.059,-0.758 0.172,-1.063 0.117,-0.312 0.277,-0.539 0.484,-0.687 0.2,-0.157 0.465,-0.258 0.797,-0.313 l 0.11,0.86 a 0.942,0.942 0 0 0 -0.61,0.343 c -0.156,0.188 -0.234,0.453 -0.234,0.797 0,0.399 0.07,0.684 0.203,0.86 0.125,0.18 0.281,0.265 0.469,0.265 a 0.423,0.423 0 0 0 0.297,-0.11 0.784,0.784 0 0 0 0.234,-0.343 c 0.031,-0.082 0.11,-0.344 0.234,-0.781 0.168,-0.614 0.305,-1.04 0.407,-1.281 0.105,-0.25 0.261,-0.442 0.468,-0.579 0.2,-0.144 0.446,-0.218 0.735,-0.218 0.304,0 0.586,0.086 0.843,0.25 0.25,0.168 0.45,0.414 0.594,0.734 0.145,0.324 0.219,0.688 0.219,1.094 0,0.68 -0.14,1.195 -0.422,1.547 -0.281,0.355 -0.695,0.578 -1.25,0.672 z m 0,0"
         style="stroke:none"
         id="path45" /></symbol></defs><path
     style="opacity:0.498307;fill:none;stroke:#000000;stroke-width:3.75;stroke-linecap:butt;stroke-linejoin:miter;stroke-dasharray:7.5, 7.5;stroke-dashoffset:0;stroke-opacity:1"
     d="m 219.11947,28.308557 113.91322,-0.02228"
     id="path214-9-1"
     sodipodi:nodetypes="cc" /><path
     style="opacity:0.498307;fill:none;stroke:#000000;stroke-width:3.75;stroke-linecap:butt;stroke-linejoin:miter;stroke-dasharray:7.5, 7.5;stroke-dashoffset:0;stroke-opacity:1"
     d="m 332.14427,461.09811 0.23832,-292.56153"
     id="path214-9-1-0"
     sodipodi:nodetypes="cc" /><path
     style="opacity:0.498307;fill:none;stroke:#000000;stroke-width:3.75;stroke-linecap:butt;stroke-linejoin:miter;stroke-dasharray:7.5, 7.5;stroke-dashoffset:0;stroke-opacity:1"
     d="m 218.08764,461.36762 53.91103,-0.0335"
     id="path214-9-1-2"
     sodipodi:nodetypes="cc" /><path
     d="m 70.062595,164.92058 8.184,0.68 5.985,0.76 7.25,-0.108 5.851,-0.418 7.450005,1.238 6.12,0.383 7.715,-0.895 6.453,-0.254 5.985,0.293 6.52,1.5 6.71399,-1.11 6.985,1.75 6.785,0.34 6.449,-0.644 6.785,1.512 6.785,-0.356 6.852,-1.832 6.515,-0.379 6.985,1.614 7.715,0.355 5.52,0.059 6.784,1.789 6.453,0.336 6.649,4.293 6.652,12.836 6.852,39.425 7.183,64.708 6.516,50.015 7.582,71.133 5.524,47.371 6.714,-20.414 6.985,-82.992 6.918,-105.25 6.52,-78.738 6.78,-54.583 6.852,-37.406003 6.586,-27.336 6.582,-17.976 6.586,-8.473 6.918,4.8 7.715,9.618 8.379,11.621 6.785,9.887 4.125,5.996 7.25,7.371 6.383,7.293 7.316,6.305 5.988,5.652 7.914,4.730003 5.852,3.997 6.387,5.25 7.98,3.671 13.168,5.391 9.711,4.414 4.79,2.375 4.855,2.406 6.785,1.97 6.715,2.98 7.515,2.004 6.32,2.007 6.118,1.227 6.851,-0.691 6.653,0.875 6.984,2.527 13.168,2.855 6.52,3.04 7.18,-0.462 7.116,0.805 6.586,1.238 6.32,0.57 7.047,1.958 6.586,1.12 6.918,2.11 6.852,1.387 6.117,1.75 7.582,0.21 9.445,0.86 12.172,0.797 6.051,-0.055 8.117,-0.27 3.657,0.06 7.05,2.347 13.235,2.113 6.984,-0.023 6.05,0.844"
     style="fill:none;stroke:#000000;stroke-width:9.75;stroke-linecap:square;stroke-linejoin:round;stroke-miterlimit:10;stroke-dasharray:none;stroke-opacity:0.8"
     id="path116" /><path
     d="m 271.86059,168.53658 v 291.35964 m 60.522,-291.35964 V 29.646577 m -60.522,138.890003 h 60.523"
     style="fill:none;stroke:#2ca02c;stroke-width:7.5;stroke-linecap:square;stroke-linejoin:round;stroke-miterlimit:10;stroke-dasharray:none;stroke-opacity:1"
     id="path120"
     sodipodi:nodetypes="cccccc" /><use
     xlink:href="#A"
     x="360.746"
     y="510.66501"
     id="use127"
     style="opacity:1;fill:#000000;fill-opacity:1"
     transform="translate(-7.0774045,-17.908423)" /><use
     xlink:href="#A"
     x="402.436"
     y="510.66501"
     id="use137"
     style="opacity:1;fill:#000000;fill-opacity:1"
     transform="translate(-7.0774045,-17.908423)" /><use
     xlink:href="#A"
     x="153.903"
     y="120.103"
     id="use144"
     style="opacity:1;fill:#000000;fill-opacity:1"
     transform="translate(-7.0774045,-17.908423)" /><use
     xlink:href="#A"
     x="197.80299"
     y="120.103"
     id="use154"
     style="opacity:1;fill:#000000;fill-opacity:1"
     transform="translate(-7.0774045,-17.908423)" /><use
     xlink:href="#A"
     x="356.23199"
     y="447.77802"
     id="use163"
     style="opacity:1;fill:#000000;fill-opacity:1"
     transform="translate(-7.0774045,-17.908423)" /><use
     xlink:href="#A"
     x="385.69199"
     y="447.77802"
     id="use170"
     style="opacity:1;fill:#000000;fill-opacity:1"
     transform="translate(-7.0774045,-17.908423)" /><use
     xlink:href="#A"
     x="169.925"
     y="447.77802"
     id="use177"
     style="opacity:1;fill:#000000;fill-opacity:1"
     transform="translate(-7.0774045,-17.908423)" /><use
     xlink:href="#A"
     x="199.38499"
     y="447.77802"
     id="use184"
     style="opacity:1;fill:#000000;fill-opacity:1"
     transform="translate(-7.0774045,-17.908423)" /><use
     xlink:href="#A"
     x="424.80399"
     y="280.77499"
     id="use200"
     style="opacity:1;fill:#000000;fill-opacity:1"
     transform="translate(-7.0774045,-17.908423)" /><use
     xlink:href="#A"
     x="449.814"
     y="280.77499"
     id="use207"
     style="opacity:1;fill:#000000;fill-opacity:1"
     transform="translate(-7.0774045,-17.908423)" /><text
     xml:space="preserve"
     style="font-style:normal;font-variant:normal;font-weight:normal;font-stretch:normal;font-size:30px;line-height:1.25;font-family:Arial;-inkscape-font-specification:Arial;text-align:center;letter-spacing:0px;word-spacing:0px;text-anchor:middle;fill:#2ca02c;fill-opacity:1;stroke-width:0.75"
     x="442.00702"
     y="180.93404"
     id="text211"><tspan
       sodipodi:role="line"
       id="tspan211"
       style="font-style:normal;font-variant:normal;font-weight:normal;font-stretch:normal;font-size:30px;font-family:Arial;-inkscape-font-specification:Arial;text-align:center;text-anchor:middle;fill:#2ca02c;fill-opacity:1;stroke-width:0.75"
       x="442.00702"
       y="180.93404">Peak-to-trough</tspan><tspan
       sodipodi:role="line"
       style="font-style:normal;font-variant:normal;font-weight:normal;font-stretch:normal;font-size:30px;font-family:Arial;-inkscape-font-specification:Arial;text-align:center;text-anchor:middle;fill:#2ca02c;fill-opacity:1;stroke-width:0.75"
       x="442.00702"
       y="218.43404"
       id="tspan214">ratio</tspan></text><text
     xml:space="preserve"
     style="font-style:normal;font-variant:normal;font-weight:normal;font-stretch:normal;font-size:30px;line-height:1.25;font-family:Arial;-inkscape-font-specification:Arial;text-align:center;letter-spacing:0px;word-spacing:0px;text-anchor:middle;fill:#d62728;fill-opacity:1;stroke-width:0.75"
     x="408.0235"
     y="448.47437"
     id="text211-7"><tspan
       sodipodi:role="line"
       id="tspan211-5"
       style="font-style:normal;font-variant:normal;font-weight:normal;font-stretch:normal;font-size:30px;font-family:Arial;-inkscape-font-specification:Arial;text-align:center;text-anchor:middle;fill:#d62728;fill-opacity:1;stroke-width:0.75"
       x="408.0235"
       y="448.47437">Duration</tspan></text><text
     xml:space="preserve"
     style="font-style:normal;font-variant:normal;font-weight:normal;font-stretch:normal;font-size:30px;line-height:1.25;font-family:Arial;-inkscape-font-specification:Arial;text-align:end;letter-spacing:0px;word-spacing:0px;text-anchor:end;fill:#1f77b4;fill-opacity:1;stroke-width:0.75"
     x="205.92633"
     y="90.672592"
     id="text211-7-3"><tspan
       sodipodi:role="line"
       id="tspan211-5-5"
       style="font-style:normal;font-variant:normal;font-weight:normal;font-stretch:normal;font-size:30px;font-family:Arial;-inkscape-font-specification:Arial;text-align:end;text-anchor:end;fill:#1f77b4;fill-opacity:1;stroke-width:0.75"
       x="205.92633"
       y="90.672592">Repolarisation</tspan><tspan
       sodipodi:role="line"
       style="font-style:normal;font-variant:normal;font-weight:normal;font-stretch:normal;font-size:30px;font-family:Arial;-inkscape-font-specification:Arial;text-align:end;text-anchor:end;fill:#1f77b4;fill-opacity:1;stroke-width:0.75"
       x="205.92633"
       y="128.17261"
       id="tspan213">amplitude</tspan></text><text
     xml:space="preserve"
     style="font-style:normal;font-variant:normal;font-weight:normal;font-stretch:normal;font-size:30px;line-height:1.25;font-family:Arial;-inkscape-font-specification:Arial;text-align:end;letter-spacing:0px;word-spacing:0px;text-anchor:end;fill:#ff7f0e;fill-opacity:1;stroke-width:0.75"
     x="205.92633"
     y="308.694"
     id="text211-7-3-6"><tspan
       sodipodi:role="line"
       id="tspan211-5-5-2"
       style="font-style:normal;font-variant:normal;font-weight:normal;font-stretch:normal;font-size:30px;font-family:Arial;-inkscape-font-specification:Arial;text-align:end;text-anchor:end;fill:#ff7f0e;fill-opacity:1;stroke-width:0.75"
       x="205.92633"
       y="308.694">Depolarisation</tspan><tspan
       sodipodi:role="line"
       style="font-style:normal;font-variant:normal;font-weight:normal;font-stretch:normal;font-size:30px;font-family:Arial;-inkscape-font-specification:Arial;text-align:end;text-anchor:end;fill:#ff7f0e;fill-opacity:1;stroke-width:0.75"
       x="205.92633"
       y="346.19403"
       id="tspan212">amplitude</tspan></text><text
     xml:space="preserve"
     style="font-style:normal;font-variant:normal;font-weight:normal;font-stretch:normal;font-size:30px;line-height:1.25;font-family:Arial;-inkscape-font-specification:Arial;text-align:center;letter-spacing:0px;word-spacing:0px;text-anchor:middle;fill:#9467bd;fill-opacity:1;stroke-width:0.75"
     x="516.90808"
     y="82.556442"
     id="text211-3"><tspan
       sodipodi:role="line"
       id="tspan211-6"
       style="font-style:normal;font-variant:normal;font-weight:normal;font-stretch:normal;font-size:30px;font-family:Arial;-inkscape-font-specification:Arial;text-align:center;text-anchor:middle;fill:#9467bd;fill-opacity:1;stroke-width:0.75"
       x="516.90808"
       y="82.556442">Recovery slope</tspan></text><path
     style="fill:none;stroke:#9467bd;stroke-width:7.5;stroke-linecap:butt;stroke-linejoin:miter;stroke-dasharray:none;stroke-opacity:1"
     d="m 332.34845,28.192168 c 1.41478,5.040999 26.21742,91.033162 216.028,119.652002"
     id="path213"
     sodipodi:nodetypes="cc" /><path
     style="fill:none;stroke:#ff7f0e;stroke-width:7.5;stroke-linecap:butt;stroke-linejoin:miter;stroke-dasharray:none;stroke-opacity:1"
     d="m 218.44959,168.19758 0.90075,293.37886"
     id="path214"
     sodipodi:nodetypes="cc" /><path
     style="fill:none;stroke:#1f77b4;stroke-width:7.5;stroke-linecap:butt;stroke-linejoin:miter;stroke-dasharray:none;stroke-opacity:1"
     d="M 219.35034,28.185421 218.44959,168.19758"
     id="path214-9"
     sodipodi:nodetypes="cc" /><path
     style="fill:none;stroke:#d62628;stroke-width:7.5;stroke-linecap:butt;stroke-linejoin:miter;stroke-dasharray:none;stroke-opacity:1"
     d="m 332.31207,461.45173 -60.45148,-0.13615"
     id="path214-9-7"
     sodipodi:nodetypes="cc" /></svg>
